<?xml version="1.0" encoding="UTF-8"?>
<svg version="1.1" xmlns="http://www.w3.org/2000/svg" width="512" height="512">
<path d="M0 0 C2.23851515 0.54367225 4.47712895 1.08693849 6.71583557 1.62982178 C11.37601832 2.76265718 16.03418298 3.90338593 20.69116211 5.04931641 C26.63667446 6.51117371 32.58787545 7.94823642 38.54095364 9.37892532 C43.15338082 10.49116974 47.7619272 11.61886681 52.369524 12.75093842 C54.56212 13.28723726 56.75601253 13.81826586 58.951231 14.34372711 C62.02172264 15.08064908 65.08619895 15.83892846 68.15014648 16.60253906 C69.04126129 16.81159378 69.9323761 17.0206485 70.85049438 17.23603821 C81.7311934 20.00572123 89.91493964 25.43684015 95.87646484 34.93212891 C97.50585808 37.70956225 99.04831138 40.51959269 100.56640625 43.359375 C101.12739014 44.40544922 101.68837402 45.45152344 102.26635742 46.52929688 C127.70669176 94.87490895 138.8363068 146.99516486 134.61035156 201.34863281 C131.57532577 243.28833523 143.17515947 283.01540173 160.96337891 320.54638672 C163.33262921 325.56847817 165.63811119 330.6192809 167.94140625 335.671875 C168.35890137 336.5781665 168.77639648 337.48445801 169.20654297 338.41821289 C172.90393691 346.50904401 175.64345671 353.50047557 174.37890625 362.546875 C169.60367149 370.05081534 158.43172922 374.21676024 150.37890625 377.546875 C150.80042969 378.50207031 151.22195313 379.45726562 151.65625 380.44140625 C159.13919912 397.88879079 159.13919912 397.88879079 156.50390625 406.359375 C108.48351445 455.79213127 -22.14031753 448.63442789 -84.9140625 449.67675781 C-90.9182687 449.76352337 -96.92211934 449.81598887 -102.92687988 449.84341431 C-105.2012373 449.85395382 -107.47557928 449.86882212 -109.74987793 449.88827515 C-112.91028849 449.91191509 -116.06998705 449.91446565 -119.23046875 449.91015625 C-120.15311523 449.91927032 -121.07576172 449.9283844 -122.02636719 449.93777466 C-132.11259434 449.86678593 -138.87045897 447.16880776 -146.14453125 440.1875 C-177.50529446 406.74920989 -185.03316817 355.33776356 -183.73925781 311.27929688 C-183.25422971 300.06352299 -182.1507787 288.87165798 -181.04296875 277.703125 C-173.71923544 200.82635136 -189.11274416 121.64261041 -233.0546875 57.33984375 C-239.32442293 48.11128069 -239.32442293 48.11128069 -238.62109375 41.546875 C-236.91259209 37.70274627 -235.4968802 36.06172383 -231.62109375 34.546875 C-228.99899368 34.11105203 -226.43116138 33.75813678 -223.79296875 33.4765625 C-223.04396301 33.39060822 -222.29495728 33.30465393 -221.52325439 33.21609497 C-219.13994265 32.94423963 -216.7556111 32.68292196 -214.37109375 32.421875 C-212.75122349 32.23897598 -211.13143064 32.05538999 -209.51171875 31.87109375 C-205.5490299 31.42172254 -201.58539354 30.98179578 -197.62109375 30.546875 C-197.97042969 30.08289307 -198.31976563 29.61891113 -198.6796875 29.14086914 C-199.13472656 28.52332764 -199.58976562 27.90578613 -200.05859375 27.26953125 C-200.51105469 26.66117432 -200.96351563 26.05281738 -201.4296875 25.42602539 C-203.31050619 22.45949641 -203.62109375 20.02381501 -203.62109375 16.546875 C-202.40384123 12.5908043 -201.46175175 11.02231076 -197.84281921 8.97561646 C-192.18382642 6.72309906 -186.08358646 6.49609743 -180.07348633 5.93701172 C-178.7026819 5.80124062 -177.33197674 5.6644641 -175.96136475 5.52676392 C-172.25336452 5.15711917 -168.54413481 4.80156366 -164.83451295 4.44861746 C-160.93824968 4.07551423 -157.04326415 3.68951224 -153.14811707 3.30496216 C-145.76513101 2.57806969 -138.38105192 1.86296721 -130.99651688 1.15200341 C-122.63630442 0.34646408 -114.27748569 -0.47310396 -105.91871798 -1.29347634 C-93.56424188 -2.50543459 -81.20927866 -3.71248974 -68.85293579 -4.90527725 C-66.89671714 -5.09422303 -64.94056742 -5.283882 -62.98442078 -5.47357178 C-59.53051764 -5.80610462 -56.07587121 -6.12982788 -52.62109375 -6.453125 C-51.54115615 -6.56093544 -50.46121855 -6.66874588 -49.34855556 -6.7798233 C-32.38786642 -8.37918104 -16.37282559 -4.01901136 0 0 Z " fill="#E3F2FB" transform="translate(287.62109375,34.453125)"/>
<path d="M0 0 C2.23851515 0.54367225 4.47712895 1.08693849 6.71583557 1.62982178 C11.37601832 2.76265718 16.03418298 3.90338593 20.69116211 5.04931641 C26.63667446 6.51117371 32.58787545 7.94823642 38.54095364 9.37892532 C43.15338082 10.49116974 47.7619272 11.61886681 52.369524 12.75093842 C54.56212 13.28723726 56.75601253 13.81826586 58.951231 14.34372711 C62.02172264 15.08064908 65.08619895 15.83892846 68.15014648 16.60253906 C69.04126129 16.81159378 69.9323761 17.0206485 70.85049438 17.23603821 C81.7311934 20.00572123 89.91493964 25.43684015 95.87646484 34.93212891 C97.50585808 37.70956225 99.04831138 40.51959269 100.56640625 43.359375 C101.12739014 44.40544922 101.68837402 45.45152344 102.26635742 46.52929688 C127.70669176 94.87490895 138.8363068 146.99516486 134.61035156 201.34863281 C131.57532577 243.28833523 143.17515947 283.01540173 160.96337891 320.54638672 C163.33262921 325.56847817 165.63811119 330.6192809 167.94140625 335.671875 C168.35890137 336.5781665 168.77639648 337.48445801 169.20654297 338.41821289 C172.90393691 346.50904401 175.64345671 353.50047557 174.37890625 362.546875 C169.60367149 370.05081534 158.43172922 374.21676024 150.37890625 377.546875 C150.80042969 378.50207031 151.22195313 379.45726562 151.65625 380.44140625 C159.13919912 397.88879079 159.13919912 397.88879079 156.50390625 406.359375 C108.48351445 455.79213127 -22.14031753 448.63442789 -84.9140625 449.67675781 C-90.9182687 449.76352337 -96.92211934 449.81598887 -102.92687988 449.84341431 C-105.2012373 449.85395382 -107.47557928 449.86882212 -109.74987793 449.88827515 C-112.91028849 449.91191509 -116.06998705 449.91446565 -119.23046875 449.91015625 C-120.15311523 449.91927032 -121.07576172 449.9283844 -122.02636719 449.93777466 C-132.11259434 449.86678593 -138.87045897 447.16880776 -146.14453125 440.1875 C-177.50529446 406.74920989 -185.03316817 355.33776356 -183.73925781 311.27929688 C-183.25422971 300.06352299 -182.1507787 288.87165798 -181.04296875 277.703125 C-173.71923544 200.82635136 -189.11274416 121.64261041 -233.0546875 57.33984375 C-239.32442293 48.11128069 -239.32442293 48.11128069 -238.62109375 41.546875 C-236.91259209 37.70274627 -235.4968802 36.06172383 -231.62109375 34.546875 C-228.99899368 34.11105203 -226.43116138 33.75813678 -223.79296875 33.4765625 C-223.04396301 33.39060822 -222.29495728 33.30465393 -221.52325439 33.21609497 C-219.13994265 32.94423963 -216.7556111 32.68292196 -214.37109375 32.421875 C-212.75122349 32.23897598 -211.13143064 32.05538999 -209.51171875 31.87109375 C-205.5490299 31.42172254 -201.58539354 30.98179578 -197.62109375 30.546875 C-197.97042969 30.08289307 -198.31976563 29.61891113 -198.6796875 29.14086914 C-199.13472656 28.52332764 -199.58976562 27.90578613 -200.05859375 27.26953125 C-200.51105469 26.66117432 -200.96351563 26.05281738 -201.4296875 25.42602539 C-203.31050619 22.45949641 -203.62109375 20.02381501 -203.62109375 16.546875 C-202.40384123 12.5908043 -201.46175175 11.02231076 -197.84281921 8.97561646 C-192.18382642 6.72309906 -186.08358646 6.49609743 -180.07348633 5.93701172 C-178.7026819 5.80124062 -177.33197674 5.6644641 -175.96136475 5.52676392 C-172.25336452 5.15711917 -168.54413481 4.80156366 -164.83451295 4.44861746 C-160.93824968 4.07551423 -157.04326415 3.68951224 -153.14811707 3.30496216 C-145.76513101 2.57806969 -138.38105192 1.86296721 -130.99651688 1.15200341 C-122.63630442 0.34646408 -114.27748569 -0.47310396 -105.91871798 -1.29347634 C-93.56424188 -2.50543459 -81.20927866 -3.71248974 -68.85293579 -4.90527725 C-66.89671714 -5.09422303 -64.94056742 -5.283882 -62.98442078 -5.47357178 C-59.53051764 -5.80610462 -56.07587121 -6.12982788 -52.62109375 -6.453125 C-51.54115615 -6.56093544 -50.46121855 -6.66874588 -49.34855556 -6.7798233 C-32.38786642 -8.37918104 -16.37282559 -4.01901136 0 0 Z M-54.5078125 2.28125 C-55.26517197 2.35905197 -56.02253143 2.43685394 -56.80284119 2.51701355 C-58.44327078 2.6856237 -60.08355101 2.85569209 -61.72369385 3.02706909 C-66.22118961 3.49650736 -70.71988443 3.95405628 -75.21875 4.41015625 C-76.62704071 4.55300804 -76.62704071 4.55300804 -78.06378174 4.69874573 C-87.21357086 5.61954824 -96.37175357 6.43537543 -105.53198242 7.24432373 C-122.14418656 8.71360049 -138.7304697 10.35707598 -155.30859375 12.171875 C-156.73851654 12.32836014 -156.73851654 12.32836014 -158.19732666 12.48800659 C-170.01189877 13.78515964 -181.81911166 15.13991339 -193.62109375 16.546875 C-194.95142045 19.37291169 -194.95142045 19.37291169 -193.79174805 21.25415039 C-193.12526245 22.18988892 -193.12526245 22.18988892 -192.4453125 23.14453125 C-191.95208496 23.85391846 -191.45885742 24.56330566 -190.95068359 25.29418945 C-190.40879395 26.05820068 -189.8669043 26.82221191 -189.30859375 27.609375 C-145.33641252 91.6726276 -132.42511827 171.12886317 -140.33166504 247.32620239 C-145.06167175 293.17360044 -142.80096169 347.21052921 -112.87109375 384.796875 C-108.76233127 389.6969547 -103.93598604 395.0838408 -97.25444031 395.80084229 C-95.93486076 395.80322906 -95.93486076 395.80322906 -94.58862305 395.80566406 C-93.57758514 395.81186768 -92.56654724 395.81807129 -91.52487183 395.82446289 C-89.87673996 395.81854126 -89.87673996 395.81854126 -88.1953125 395.8125 C-86.4647612 395.81672974 -86.4647612 395.81672974 -84.69924927 395.82104492 C-80.90224291 395.8253473 -77.10556702 395.81263094 -73.30859375 395.796875 C-72.00546234 395.79377319 -70.70233093 395.79067139 -69.35971069 395.78747559 C55.22867993 400.45168825 55.22867993 400.45168825 166.37890625 358.546875 C166.00581696 352.81620803 164.7163215 348.34837246 162.1328125 343.20703125 C161.64242744 342.19298218 161.64242744 342.19298218 161.14213562 341.15844727 C160.44447372 339.71639093 159.74215316 338.27658044 159.03552246 336.83889771 C157.17979181 333.05740395 155.36521984 329.25642432 153.5546875 325.453125 C153.19361908 324.69508072 152.83255066 323.93703644 152.46054077 323.15602112 C147.5783941 312.83289603 143.39189387 302.23475614 139.37890625 291.546875 C139.03480713 290.65121826 138.69070801 289.75556152 138.33618164 288.83276367 C135.84901676 282.22838432 133.95545813 275.59541968 132.31640625 268.734375 C132.07341797 267.77595703 131.83042969 266.81753906 131.58007812 265.83007812 C130.75652465 262.41571716 130.05118617 258.99434578 129.37890625 255.546875 C129.24027161 254.8610434 129.10163696 254.17521179 128.95880127 253.46859741 C125.09672179 233.54095649 126.14846014 213.17597274 126.37890625 192.984375 C127.06658452 162.11292468 127.06658452 162.11292468 123.37890625 131.546875 C123.09611816 129.96169067 123.09611816 129.96169067 122.80761719 128.34448242 C122.34885136 125.85157046 121.82843035 123.39036356 121.25390625 120.921875 C121.04781738 120.0347583 120.84172852 119.1476416 120.62939453 118.23364258 C109.15203732 70.39419839 109.15203732 70.39419839 82.37890625 31.546875 C79.7386065 31.41684048 77.3970241 31.47506172 74.78125 31.69921875 C73.99636703 31.7548851 73.21148407 31.81055145 72.40281677 31.86790466 C60.11789942 32.79065593 47.86129332 34.15477108 35.61303711 35.46557617 C24.66972885 36.63044398 13.73313272 37.7652172 2.72265625 37.96875 C1.59960838 38.00912132 1.59960838 38.00912132 0.45387268 38.05030823 C-6.00000228 38.06062954 -9.60618292 35.7579599 -14.49194336 31.75146484 C-14.91483643 31.32043457 -15.33772949 30.8894043 -15.7734375 30.4453125 C-16.25280762 29.96288086 -16.73217773 29.48044922 -17.22607422 28.98339844 C-17.91660889 28.27231934 -17.91660889 28.27231934 -18.62109375 27.546875 C-19.48863281 26.69351563 -20.35617187 25.84015625 -21.25 24.9609375 C-25.00663335 21.04557316 -28.36298549 16.9823132 -31.4375 12.515625 C-32.15558838 11.48344849 -32.15558838 11.48344849 -32.88818359 10.43041992 C-33.81676801 9.07648702 -34.72325547 7.70706037 -35.60400391 6.3215332 C-36.99586257 4.16759645 -36.99586257 4.16759645 -39.62109375 1.546875 C-44.61286312 1.19064872 -49.54307017 1.75010143 -54.5078125 2.28125 Z " fill="#94B7EA" transform="translate(287.62109375,34.453125)"/>
<path d="M0 0 C2.23851515 0.54367225 4.47712895 1.08693849 6.71583557 1.62982178 C11.37601832 2.76265718 16.03418298 3.90338593 20.69116211 5.04931641 C26.63667446 6.51117371 32.58787545 7.94823642 38.54095364 9.37892532 C43.15338082 10.49116974 47.7619272 11.61886681 52.369524 12.75093842 C54.56212 13.28723726 56.75601253 13.81826586 58.951231 14.34372711 C62.02172264 15.08064908 65.08619895 15.83892846 68.15014648 16.60253906 C69.04126129 16.81159378 69.9323761 17.0206485 70.85049438 17.23603821 C81.7311934 20.00572123 89.91493964 25.43684015 95.87646484 34.93212891 C97.50585808 37.70956225 99.04831138 40.51959269 100.56640625 43.359375 C101.12739014 44.40544922 101.68837402 45.45152344 102.26635742 46.52929688 C127.70669176 94.87490895 138.8363068 146.99516486 134.61035156 201.34863281 C131.57532577 243.28833523 143.17515947 283.01540173 160.96337891 320.54638672 C163.33262921 325.56847817 165.63811119 330.6192809 167.94140625 335.671875 C168.35890137 336.5781665 168.77639648 337.48445801 169.20654297 338.41821289 C172.90393691 346.50904401 175.64345671 353.50047557 174.37890625 362.546875 C169.60367149 370.05081534 158.43172922 374.21676024 150.37890625 377.546875 C150.80042969 378.50207031 151.22195313 379.45726562 151.65625 380.44140625 C159.13919912 397.88879079 159.13919912 397.88879079 156.50390625 406.359375 C108.48351445 455.79213127 -22.14031753 448.63442789 -84.9140625 449.67675781 C-90.9182687 449.76352337 -96.92211934 449.81598887 -102.92687988 449.84341431 C-105.2012373 449.85395382 -107.47557928 449.86882212 -109.74987793 449.88827515 C-112.91028849 449.91191509 -116.06998705 449.91446565 -119.23046875 449.91015625 C-120.15311523 449.91927032 -121.07576172 449.9283844 -122.02636719 449.93777466 C-132.11259434 449.86678593 -138.87045897 447.16880776 -146.14453125 440.1875 C-177.50529446 406.74920989 -185.03316817 355.33776356 -183.73925781 311.27929688 C-183.25422971 300.06352299 -182.1507787 288.87165798 -181.04296875 277.703125 C-173.71923544 200.82635136 -189.11274416 121.64261041 -233.0546875 57.33984375 C-239.32442293 48.11128069 -239.32442293 48.11128069 -238.62109375 41.546875 C-236.91259209 37.70274627 -235.4968802 36.06172383 -231.62109375 34.546875 C-228.99899368 34.11105203 -226.43116138 33.75813678 -223.79296875 33.4765625 C-223.04396301 33.39060822 -222.29495728 33.30465393 -221.52325439 33.21609497 C-219.13994265 32.94423963 -216.7556111 32.68292196 -214.37109375 32.421875 C-212.75122349 32.23897598 -211.13143064 32.05538999 -209.51171875 31.87109375 C-205.5490299 31.42172254 -201.58539354 30.98179578 -197.62109375 30.546875 C-197.97042969 30.08289307 -198.31976563 29.61891113 -198.6796875 29.14086914 C-199.13472656 28.52332764 -199.58976562 27.90578613 -200.05859375 27.26953125 C-200.51105469 26.66117432 -200.96351563 26.05281738 -201.4296875 25.42602539 C-203.31050619 22.45949641 -203.62109375 20.02381501 -203.62109375 16.546875 C-202.40384123 12.5908043 -201.46175175 11.02231076 -197.84281921 8.97561646 C-192.18382642 6.72309906 -186.08358646 6.49609743 -180.07348633 5.93701172 C-178.7026819 5.80124062 -177.33197674 5.6644641 -175.96136475 5.52676392 C-172.25336452 5.15711917 -168.54413481 4.80156366 -164.83451295 4.44861746 C-160.93824968 4.07551423 -157.04326415 3.68951224 -153.14811707 3.30496216 C-145.76513101 2.57806969 -138.38105192 1.86296721 -130.99651688 1.15200341 C-122.63630442 0.34646408 -114.27748569 -0.47310396 -105.91871798 -1.29347634 C-93.56424188 -2.50543459 -81.20927866 -3.71248974 -68.85293579 -4.90527725 C-66.89671714 -5.09422303 -64.94056742 -5.283882 -62.98442078 -5.47357178 C-59.53051764 -5.80610462 -56.07587121 -6.12982788 -52.62109375 -6.453125 C-51.54115615 -6.56093544 -50.46121855 -6.66874588 -49.34855556 -6.7798233 C-32.38786642 -8.37918104 -16.37282559 -4.01901136 0 0 Z M-54.5078125 2.28125 C-55.26517197 2.35905197 -56.02253143 2.43685394 -56.80284119 2.51701355 C-58.44327078 2.6856237 -60.08355101 2.85569209 -61.72369385 3.02706909 C-66.22118961 3.49650736 -70.71988443 3.95405628 -75.21875 4.41015625 C-76.62704071 4.55300804 -76.62704071 4.55300804 -78.06378174 4.69874573 C-87.21357086 5.61954824 -96.37175357 6.43537543 -105.53198242 7.24432373 C-122.14418656 8.71360049 -138.7304697 10.35707598 -155.30859375 12.171875 C-156.73851654 12.32836014 -156.73851654 12.32836014 -158.19732666 12.48800659 C-170.01189877 13.78515964 -181.81911166 15.13991339 -193.62109375 16.546875 C-194.95142045 19.37291169 -194.95142045 19.37291169 -193.79174805 21.25415039 C-193.12526245 22.18988892 -193.12526245 22.18988892 -192.4453125 23.14453125 C-191.95208496 23.85391846 -191.45885742 24.56330566 -190.95068359 25.29418945 C-190.40879395 26.05820068 -189.8669043 26.82221191 -189.30859375 27.609375 C-145.33641252 91.6726276 -132.42511827 171.12886317 -140.33166504 247.32620239 C-145.06167175 293.17360044 -142.80096169 347.21052921 -112.87109375 384.796875 C-108.76233127 389.6969547 -103.93598604 395.0838408 -97.25444031 395.80084229 C-95.93486076 395.80322906 -95.93486076 395.80322906 -94.58862305 395.80566406 C-93.57758514 395.81186768 -92.56654724 395.81807129 -91.52487183 395.82446289 C-89.87673996 395.81854126 -89.87673996 395.81854126 -88.1953125 395.8125 C-86.4647612 395.81672974 -86.4647612 395.81672974 -84.69924927 395.82104492 C-80.90224291 395.8253473 -77.10556702 395.81263094 -73.30859375 395.796875 C-72.00546234 395.79377319 -70.70233093 395.79067139 -69.35971069 395.78747559 C55.22867993 400.45168825 55.22867993 400.45168825 166.37890625 358.546875 C166.00581696 352.81620803 164.7163215 348.34837246 162.1328125 343.20703125 C161.64242744 342.19298218 161.64242744 342.19298218 161.14213562 341.15844727 C160.44447372 339.71639093 159.74215316 338.27658044 159.03552246 336.83889771 C157.17979181 333.05740395 155.36521984 329.25642432 153.5546875 325.453125 C153.19361908 324.69508072 152.83255066 323.93703644 152.46054077 323.15602112 C147.5783941 312.83289603 143.39189387 302.23475614 139.37890625 291.546875 C139.03480713 290.65121826 138.69070801 289.75556152 138.33618164 288.83276367 C135.84901676 282.22838432 133.95545813 275.59541968 132.31640625 268.734375 C132.07341797 267.77595703 131.83042969 266.81753906 131.58007812 265.83007812 C130.75652465 262.41571716 130.05118617 258.99434578 129.37890625 255.546875 C129.24027161 254.8610434 129.10163696 254.17521179 128.95880127 253.46859741 C125.09672179 233.54095649 126.14846014 213.17597274 126.37890625 192.984375 C127.06658452 162.11292468 127.06658452 162.11292468 123.37890625 131.546875 C123.09611816 129.96169067 123.09611816 129.96169067 122.80761719 128.34448242 C122.34885136 125.85157046 121.82843035 123.39036356 121.25390625 120.921875 C121.04781738 120.0347583 120.84172852 119.1476416 120.62939453 118.23364258 C109.15203732 70.39419839 109.15203732 70.39419839 82.37890625 31.546875 C79.7386065 31.41684048 77.3970241 31.47506172 74.78125 31.69921875 C73.99636703 31.7548851 73.21148407 31.81055145 72.40281677 31.86790466 C60.11789942 32.79065593 47.86129332 34.15477108 35.61303711 35.46557617 C24.66972885 36.63044398 13.73313272 37.7652172 2.72265625 37.96875 C1.59960838 38.00912132 1.59960838 38.00912132 0.45387268 38.05030823 C-6.00000228 38.06062954 -9.60618292 35.7579599 -14.49194336 31.75146484 C-14.91483643 31.32043457 -15.33772949 30.8894043 -15.7734375 30.4453125 C-16.25280762 29.96288086 -16.73217773 29.48044922 -17.22607422 28.98339844 C-17.91660889 28.27231934 -17.91660889 28.27231934 -18.62109375 27.546875 C-19.48863281 26.69351563 -20.35617187 25.84015625 -21.25 24.9609375 C-25.00663335 21.04557316 -28.36298549 16.9823132 -31.4375 12.515625 C-32.15558838 11.48344849 -32.15558838 11.48344849 -32.88818359 10.43041992 C-33.81676801 9.07648702 -34.72325547 7.70706037 -35.60400391 6.3215332 C-36.99586257 4.16759645 -36.99586257 4.16759645 -39.62109375 1.546875 C-44.61286312 1.19064872 -49.54307017 1.75010143 -54.5078125 2.28125 Z M-205.0859375 40.203125 C-205.76411026 40.26971313 -206.44228302 40.33630127 -207.14100647 40.40490723 C-209.28053187 40.6157122 -211.41955336 40.83120994 -213.55859375 41.046875 C-215.02015139 41.19171842 -216.48173971 41.33625256 -217.94335938 41.48046875 C-221.50296566 41.83236566 -225.06213624 42.18846914 -228.62109375 42.546875 C-229.45106211 44.79458425 -229.45106211 44.79458425 -229.62109375 47.546875 C-228.23143665 50.16538789 -228.23143665 50.16538789 -226.10546875 52.66796875 C-202.58587015 83.2322082 -189.02289549 121.53773067 -179.62109375 158.546875 C-179.41645508 159.34657715 -179.21181641 160.1462793 -179.00097656 160.97021484 C-177.63277721 166.45853284 -176.57854161 171.97355209 -175.62109375 177.546875 C-175.4391748 178.5462207 -175.25725586 179.54556641 -175.06982422 180.57519531 C-168.91308957 215.66285803 -170.03463037 252.51824154 -173.33139038 287.86404419 C-175.58745023 312.08868914 -176.82720179 337.52436724 -172.02246094 361.50488281 C-171.64324438 363.43418165 -171.3368535 365.37738224 -171.03515625 367.3203125 C-166.84648 392.39797163 -155.05238441 424.11634573 -133.62109375 439.546875 C-130.38206619 440.65990583 -127.30913519 440.67931483 -123.90185547 440.69213867 C-122.74039001 440.69842789 -121.57892456 440.7047171 -120.38226318 440.7111969 C-119.11787415 440.71240036 -117.85348511 440.71360382 -116.55078125 440.71484375 C-115.21274762 440.71883526 -113.87471456 440.72302567 -112.53668213 440.72740173 C-108.18980737 440.7388519 -103.84297886 440.73705328 -99.49609375 440.734375 C-98.00242106 440.73443102 -96.50874837 440.73449206 -95.01507568 440.73455811 C-75.24499062 440.72806244 -55.50233265 440.47885592 -35.74609375 439.671875 C-34.75220642 439.63266937 -33.75831909 439.59346375 -32.73431396 439.55307007 C-20.32071295 439.04865977 -8.0065934 438.10548993 4.34399414 436.76477051 C6.88612185 436.49256307 9.43044995 436.25126728 11.9765625 436.01953125 C33.92400326 434.00788067 55.72597107 431.73064958 77.37890625 427.546875 C78.28463379 427.37994141 79.19036133 427.21300781 80.12353516 427.04101562 C116.81209002 420.47085976 116.81209002 420.47085976 148.37890625 402.546875 C148.78487019 397.08356367 147.8160487 393.19181106 145.69140625 388.171875 C145.32499023 387.23021484 145.32499023 387.23021484 144.95117188 386.26953125 C143.76917522 383.498572 142.94524066 381.82548316 140.1953125 380.47265625 C136.20848558 380.57771826 132.7385548 381.83264014 129.00390625 383.109375 C96.99340099 393.28191408 61.78498844 396.97107257 28.37890625 399.546875 C27.3410498 399.6303418 26.30319336 399.71380859 25.23388672 399.79980469 C21.74118396 400.07849651 18.24779597 400.3459995 14.75390625 400.609375 C13.21077759 400.72865356 13.21077759 400.72865356 11.63647461 400.8503418 C-11.54530766 402.51105829 -34.81175123 402.82913233 -58.0451088 402.93974972 C-62.3235369 402.9602697 -66.6010947 402.99312038 -70.87915039 403.05444336 C-75.10548815 403.11482426 -79.33108071 403.14538887 -83.5578289 403.15507698 C-85.14336446 403.16355522 -86.72888395 403.18218085 -88.31416512 403.2118206 C-99.56301461 403.41163199 -106.98841183 401.78550098 -115.46875 393.8984375 C-142.08880136 361.12807445 -148.96333605 320.16155524 -148.99609375 279.109375 C-148.99817841 278.04463959 -149.00026306 276.97990417 -149.00241089 275.88290405 C-148.99949049 262.69656192 -148.38411261 249.74651883 -146.853302 236.64936829 C-139.32258697 168.46368725 -154.97443065 99.45378359 -189.62109375 40.546875 C-190.75058791 39.18968673 -190.75058791 39.18968673 -193.71704102 39.44335938 C-197.53826537 39.54467881 -201.28269711 39.82437907 -205.0859375 40.203125 Z " fill="#1F243C" transform="translate(287.62109375,34.453125)"/>
<path d="M0 0 C16.01728105 13.56174851 28.66536185 32.92490249 30.67504883 54.2734375 C31.66907702 73.66698204 28.15435252 90.77891121 15.25 105.9375 C2.52323834 119.36775099 -13.27671629 126.41135477 -31.73999023 127.1550293 C-51.97534934 127.46278261 -69.66133031 119.95982672 -85.5625 107.75 C-86.8928125 106.7909375 -86.8928125 106.7909375 -88.25 105.8125 C-103.14140965 92.53097248 -115.02868995 72.18803785 -116.79003906 52.16308594 C-117.84007077 33.46723835 -114.87296547 16.99767482 -102.1875 2.5 C-100.66323817 0.89990425 -99.12245163 -0.68467848 -97.5625 -2.25 C-96.94761719 -2.88808594 -96.33273438 -3.52617188 -95.69921875 -4.18359375 C-68.93182388 -29.91926891 -26.28223176 -20.76259755 0 0 Z " fill="#1B1F38" transform="translate(312.5625,127.25)"/>
<path d="M0 0 C1.39412109 1.03447266 1.39412109 1.03447266 2.81640625 2.08984375 C17.77147769 13.66730722 29.06808533 31.10543879 32 50 C32.88738104 62.2649286 33.36480054 77.0533174 25 87 C24.78085937 86.3709375 24.56171875 85.741875 24.3359375 85.09375 C20.6428837 75.12550723 15.15277936 66.74812668 5.18701172 62.16650391 C3.46560574 61.4264076 1.73348872 60.71133532 0 60 C0.04640625 58.90042969 0.0928125 57.80085938 0.140625 56.66796875 C0.51959776 43.90295128 -1.03955774 33.74499712 -10 24 C-17.94722744 15.95384442 -26.96560537 11.14868818 -38.375 10.6875 C-47.19969044 10.94570953 -54.61314429 13.89763675 -61 20 C-66.57966242 26.43151928 -68.3889813 32.26551435 -68.375 40.6875 C-68.37628906 41.48462402 -68.37757813 42.28174805 -68.37890625 43.10302734 C-68.26699603 49.35601075 -67.09706985 54.49717053 -64 60 C-64.66386719 60.35191406 -65.32773438 60.70382813 -66.01171875 61.06640625 C-73.4521323 65.22652069 -78.51517392 69.51017754 -81 78 C-81.42939407 80.66623757 -81.7264954 83.3105381 -82 86 C-86.25122609 82.17834031 -88.67268563 78.38507993 -91.125 73.25 C-91.64429077 72.18265625 -91.64429077 72.18265625 -92.17407227 71.09375 C-99.10394436 56.62337169 -101.86049319 39.77103217 -97.375 24.0625 C-91.82357774 8.51078051 -81.60967487 -2.45015559 -67 -10 C-45.47803798 -19.49207513 -18.17222044 -14.10776919 0 0 Z " fill="#93B7EA" transform="translate(303,130)"/>
<path d="M0 0 C1.11436919 0.90038807 2.19502641 1.84319712 3.25 2.8125 C11.11187319 9.95341538 20.33534561 11.37451045 30.640625 11.28125 C38.41140239 10.63067329 44.48335646 7.37872745 50 2 C50.66 1.01 51.32 0.02 52 -1 C60.80300043 1.58221346 66.68288011 4.53605354 71.671875 12.4921875 C74.16892804 17.20721118 76.22613729 22.15588866 75.796875 27.5546875 C73.49351503 34.62284115 65.24827051 38.69286142 59 41.875 C45.50199723 48.59275601 27.3828014 49.55871314 12.953125 45.16796875 C7.06047652 42.83741069 1.43292797 40.12861658 -4.10205078 37.04541016 C-5.86621138 36.07369216 -7.66461961 35.16487517 -9.46484375 34.26171875 C-12.66968216 32.4015101 -14.76722979 30.96482602 -17 28 C-18.56380576 20.99183344 -18.51571339 13.62575898 -14.8125 7.25 C-10.83522099 2.13151309 -6.62129742 -2.20709914 0 0 Z " fill="#1F077E" transform="translate(246,198)"/>
<path d="M0 0 C9.20657922 4.30849767 14.79203536 11.23195841 18.9375 20.3125 C20.66665203 28.17228197 20.07079339 34.16853021 16.1015625 41.2421875 C12.03684807 47.28549308 6.60865189 49.86827462 -0.375 51.4375 C-8.53067366 52.50709655 -15.59755955 49.41346568 -22.48828125 45.12109375 C-28.15305331 40.71236871 -32.12077306 34.20018082 -34.375 27.4375 C-35.03715149 19.99302539 -35.53674434 13.22318585 -30.87109375 7.05078125 C-22.33804328 -2.15065437 -12.05029198 -4.35981061 0 0 Z " fill="#250896" transform="translate(276.375,150.5625)"/>
<path d="M0 0 C0.99 0.99 0.99 0.99 2 2 C1.88964844 4.49243164 1.88964844 4.49243164 1 7 C-5.42428462 11.43372193 -14.74751884 12.51499353 -22.25 14.0625 C-23.49160889 14.32071533 -24.73321777 14.57893066 -26.01245117 14.8449707 C-36.97483745 17.07495513 -47.869903 18.87633485 -59 20 C-59.64610229 20.06574219 -60.29220459 20.13148438 -60.95788574 20.19921875 C-81.23582271 22.24012242 -101.43020093 23.28784823 -121.8125 23.3125 C-122.76530853 23.31599457 -123.71811707 23.31948914 -124.69979858 23.3230896 C-127.38994441 23.32860237 -130.07944683 23.31829945 -132.76953125 23.30078125 C-133.97919052 23.30194443 -133.97919052 23.30194443 -135.21328735 23.3031311 C-140.76774781 23.23225219 -140.76774781 23.23225219 -143 21 C-142.63318342 18.06546739 -142.13562754 17.13562754 -140 15 C-137.01123047 14.72875977 -137.01123047 14.72875977 -133.1171875 14.69140625 C-131.64436394 14.66833853 -130.17154511 14.64496763 -128.69873047 14.62133789 C-127.91415466 14.61216339 -127.12957886 14.60298889 -126.32122803 14.59353638 C-111.46603867 14.40506202 -96.6859518 13.70924248 -81.875 12.5625 C-80.65970612 12.47006516 -80.65970612 12.47006516 -79.41986084 12.37576294 C-73.94293843 11.95575184 -68.47095921 11.49127156 -63 11 C-62.21530334 10.93149841 -61.43060669 10.86299683 -60.62213135 10.79241943 C-49.69590758 9.82150273 -39.04158311 8.26493427 -28.31494141 5.96826172 C-26.07801607 5.48995371 -23.83823083 5.02728852 -21.59765625 4.56640625 C-14.74773472 3.13419033 -6.90095167 -0.74604883 0 0 Z " fill="#20243A" transform="translate(366,344)"/>
<path d="M0 0 C2 2 2 2 2.125 4.625 C2.08375 5.40875 2.0425 6.1925 2 7 C-5.19115761 10.04067769 -12.53829533 11.4995407 -20.1875 12.9375 C-20.86606049 13.06661774 -21.54462097 13.19573547 -22.2437439 13.32876587 C-54.86263496 19.51136317 -87.79383768 23.25424288 -121 23.3125 C-121.84271454 23.31608521 -122.68542908 23.31967041 -123.55368042 23.32336426 C-125.93188869 23.32885039 -128.30936234 23.31843787 -130.6875 23.30078125 C-131.40039688 23.30155167 -132.11329376 23.30232208 -132.84779358 23.30311584 C-137.76772398 23.23227602 -137.76772398 23.23227602 -140 21 C-139.75 18.4375 -139.75 18.4375 -139 16 C-136.02443192 14.51221596 -133.29641339 14.83355577 -129.9765625 14.7890625 C-128.48485119 14.76355567 -126.99315227 14.73731682 -125.50146484 14.71044922 C-124.31239532 14.69059967 -124.31239532 14.69059967 -123.0993042 14.67034912 C-95.52461159 14.16495933 -68.481735 11.97964942 -41.25 7.5625 C-39.9004422 7.34481964 -39.9004422 7.34481964 -38.52362061 7.1227417 C-28.29756303 5.45443164 -18.27609134 3.47501091 -8.27636719 0.74975586 C-5.33642384 0.07698641 -2.99069293 -0.32320072 0 0 Z " fill="#1F2339" transform="translate(363,288)"/>
<path d="M0 0 C16.38956992 3.48339688 32.63822112 7.55118258 48.90118408 11.57507324 C52.62383526 12.49564651 56.34710981 13.41369161 60.0703125 14.33203125 C81.87939317 19.71302901 81.87939317 19.71302901 91 22 C91 22.33 91 22.66 91 23 C84.13660582 23.72218145 77.27209472 24.43295005 70.40673828 25.13623047 C68.07704667 25.37618903 65.747611 25.61864738 63.41845703 25.86376953 C28.56792769 29.52673808 28.56792769 29.52673808 22.875 25.75 C21.54536724 24.5404631 20.25900296 23.28289296 19 22 C18.03439141 21.08009666 17.06677958 20.16229355 16.09765625 19.24609375 C10.22257519 13.6078079 4.57061179 7.77544916 0 1 C0 0.67 0 0.34 0 0 Z " fill="#92B6E8" transform="translate(258,37)"/>
</svg>
