<?xml version="1.0" encoding="UTF-8"?>
<svg version="1.1" xmlns="http://www.w3.org/2000/svg" width="32" height="32">
<path d="M0 0 C0.69351562 0.14050781 1.38703125 0.28101562 2.1015625 0.42578125 C4 1 4 1 7 3 C9.41434166 9.01961782 9.25363904 15.68497199 9.125 22.0625 C9.11597656 22.92810547 9.10695312 23.79371094 9.09765625 24.68554688 C9.07439723 26.79048779 9.03854008 28.89528342 9 31 C5.97861433 31.08149592 2.95946095 31.14073421 -0.0625 31.1875 C-1.33383789 31.22520508 -1.33383789 31.22520508 -2.63085938 31.26367188 C-9.71204413 31.34569332 -14.43881739 30.28279319 -19.875 25.4375 C-24.75088902 18.94697232 -23.13138313 8.67861381 -23 1 C-15.149758 -0.488839 -7.89728319 -1.62102129 0 0 Z " fill="#EDF5FC" transform="translate(23,1)"/>
<path d="M0 0 C0 1.32 0 2.64 0 4 C-9.9 4.33 -19.8 4.66 -30 5 C-30 2.69 -30 0.38 -30 -2 C-19.12842242 -4.06185092 -10.08706081 -5.0435304 0 0 Z " fill="#8FDEE3" transform="translate(30,4)"/>
<path d="M0 0 C1.84288788 3.68577577 2.24701045 4.72122653 2.1953125 8.546875 C2.18886719 9.39121094 2.18242188 10.23554688 2.17578125 11.10546875 C2.15902344 11.97816406 2.14226563 12.85085937 2.125 13.75 C2.11597656 14.63816406 2.10695313 15.52632812 2.09765625 16.44140625 C2.07414577 18.62788058 2.04128499 20.81380094 2 23 C-1.06273831 23.05410136 -4.12451452 23.09372225 -7.1875 23.125 C-8.48397461 23.15013672 -8.48397461 23.15013672 -9.80664062 23.17578125 C-14.32208103 23.21038233 -17.90081483 23.15567916 -22 21 C-22 20.67 -22 20.34 -22 20 C-17.38 20 -12.76 20 -8 20 C-8 17.36 -8 14.72 -8 12 C-5.36 12 -2.72 12 0 12 C0 8.04 0 4.08 0 0 Z " fill="#34A7E0" transform="translate(30,9)"/>
<path d="M0 0 C1.26166992 0.00483398 1.26166992 0.00483398 2.54882812 0.00976562 C3.84530273 0.02233398 3.84530273 0.02233398 5.16796875 0.03515625 C6.05162109 0.03966797 6.93527344 0.04417969 7.84570312 0.04882812 C10.01565434 0.06055759 12.18557047 0.0784913 14.35546875 0.09765625 C14.35546875 0.42765625 14.35546875 0.75765625 14.35546875 1.09765625 C12.70546875 1.09765625 11.05546875 1.09765625 9.35546875 1.09765625 C9.35546875 2.41765625 9.35546875 3.73765625 9.35546875 5.09765625 C6.31333608 6.61872259 3.07499303 6.47194963 -0.26953125 6.66015625 C-0.9759375 6.70333984 -1.68234375 6.74652344 -2.41015625 6.79101562 C-4.15471662 6.89710376 -5.89959822 6.99788514 -7.64453125 7.09765625 C-7.97453125 9.40765625 -8.30453125 11.71765625 -8.64453125 14.09765625 C-8.97453125 14.09765625 -9.30453125 14.09765625 -9.64453125 14.09765625 C-9.64453125 9.80765625 -9.64453125 5.51765625 -9.64453125 1.09765625 C-6.08160869 0.38507174 -3.50986961 -0.02387666 0 0 Z " fill="#EFF6FE" transform="translate(13.64453125,7.90234375)"/>
<path d="M0 0 C6.6 0 13.2 0 20 0 C20 1.32 20 2.64 20 4 C13.4 4 6.8 4 0 4 C0 2.68 0 1.36 0 0 Z " fill="#394A8D" transform="translate(10,4)"/>
<path d="M0 0 C0 4.29 0 8.58 0 13 C-2.64 12.01 -5.28 11.02 -8 10 C-7.67 7.03 -7.34 4.06 -7 1 C-2.25 0 -2.25 0 0 0 Z " fill="#D7DCF5" transform="translate(30,8)"/>
<path d="M0 0 C0.99 0 1.98 0 3 0 C3.04898437 1.13179687 3.09796875 2.26359375 3.1484375 3.4296875 C3.22346514 4.91148339 3.29901297 6.393253 3.375 7.875 C3.4059375 8.62136719 3.436875 9.36773437 3.46875 10.13671875 C3.55643831 14.53473188 3.55643831 14.53473188 6 18 C8.56916657 18.30599063 11.04758384 18.51087087 13.625 18.625 C14.68460938 18.68300781 14.68460938 18.68300781 15.765625 18.7421875 C17.50998524 18.83647724 19.25495691 18.91932891 21 19 C21 19.33 21 19.66 21 20 C18.43493576 20.16276553 15.88024578 20.28113984 13.3125 20.375 C12.2306543 20.45041016 12.2306543 20.45041016 11.12695312 20.52734375 C8.08924391 20.61056866 5.89922698 20.66251629 3.39550781 18.81787109 C0.62831351 15.72389756 -0.65629949 12.97885078 -0.875 8.875 C-0.93429688 8.04742187 -0.99359375 7.21984375 -1.0546875 6.3671875 C-1.00181594 4.07860414 -0.65472744 2.18578239 0 0 Z " fill="#B3B7F3" transform="translate(1,9)"/>
<path d="M0 0 C1.84288788 3.68577577 2.24701045 4.72122653 2.1953125 8.546875 C2.18564453 9.81337891 2.18564453 9.81337891 2.17578125 11.10546875 C2.15902344 11.97816406 2.14226563 12.85085937 2.125 13.75 C2.11597656 14.63816406 2.10695313 15.52632812 2.09765625 16.44140625 C2.07414577 18.62788058 2.04128499 20.81380094 2 23 C-0.64 23 -3.28 23 -6 23 C-6 22.01 -6 21.02 -6 20 C-4.02 19.67 -2.04 19.34 0 19 C0 17.35 0 15.7 0 14 C-1.98 14 -3.96 14 -6 14 C-6 13.34 -6 12.68 -6 12 C-4.02 12 -2.04 12 0 12 C0 8.04 0 4.08 0 0 Z " fill="#5BA7EC" transform="translate(30,9)"/>
<path d="M0 0 C1.28583984 0.10054687 1.28583984 0.10054687 2.59765625 0.203125 C4.9375 0.75 4.9375 0.75 7.9375 3.75 C2.6575 3.75 -2.6225 3.75 -8.0625 3.75 C-8.3925 5.07 -8.7225 6.39 -9.0625 7.75 C-9.0625 5.44 -9.0625 3.13 -9.0625 0.75 C-5.89515066 -0.22004667 -3.2921308 -0.29793039 0 0 Z " fill="#7572E3" transform="translate(18.0625,0.25)"/>
<path d="M0 0 C0.99 0 1.98 0 3 0 C3 1.65 3 3.3 3 5 C6.96 5 10.92 5 15 5 C14.01 5.33 13.02 5.66 12 6 C12 6.66 12 7.32 12 8 C8.04 8 4.08 8 0 8 C0 5.36 0 2.72 0 0 Z " fill="#67CDBE" transform="translate(6,14)"/>
<path d="M0 0 C5.61 0 11.22 0 17 0 C17 0.99 17 1.98 17 3 C11.39 3 5.78 3 0 3 C0 2.01 0 1.02 0 0 Z " fill="#FFFFFF" transform="translate(6,10)"/>
<path d="M0 0 C4.95 0 9.9 0 15 0 C15 0.66 15 1.32 15 2 C11.71480525 3.09506492 9.26336585 3.09960608 5.8125 3.0625 C4.18248047 3.04896484 4.18248047 3.04896484 2.51953125 3.03515625 C1.68808594 3.02355469 0.85664062 3.01195312 0 3 C0 2.01 0 1.02 0 0 Z " fill="#F7B86F" transform="translate(6,23)"/>
<path d="M0 0 C3.63 0 7.26 0 11 0 C11.33 0.66 11.66 1.32 12 2 C11.01 2 10.02 2 9 2 C9 2.66 9 3.32 9 4 C4.545 4.495 4.545 4.495 0 5 C0 3.35 0 1.7 0 0 Z " fill="#AEDDF8" transform="translate(9,14)"/>
<path d="M0 0 C4.62 0 9.24 0 14 0 C14 0.66 14 1.32 14 2 C4.58997722 3.51708428 4.58997722 3.51708428 0 1 C0 0.67 0 0.34 0 0 Z " fill="#766EE6" transform="translate(8,29)"/>
<path d="M0 0 C0.33 1.32 0.66 2.64 1 4 C2.98 3.67 4.96 3.34 7 3 C7.66 4.32 8.32 5.64 9 7 C6.03 7 3.06 7 0 7 C0 4.69 0 2.38 0 0 Z " fill="#4DC69D" transform="translate(0,2)"/>
<path d="M0 0 C-0.66 1.32 -1.32 2.64 -2 4 C-3.65 4 -5.3 4 -7 4 C-7 2.68 -7 1.36 -7 0 C-2.25 -1.125 -2.25 -1.125 0 0 Z " fill="#F8BC75" transform="translate(30,9)"/>
<path d="M0 0 C0.33 0 0.66 0 1 0 C1 2.31 1 4.62 1 7 C4.3 7 7.6 7 11 7 C11 7.33 11 7.66 11 8 C7.7 8 4.4 8 1 8 C0.67 8.99 0.34 9.98 0 11 C-1.37432457 7.18243176 -0.67975039 3.92744671 0 0 Z " fill="#E9F0F4" transform="translate(5,15)"/>
<path d="M0 0 C0.99 0 1.98 0 3 0 C3 2.64 3 5.28 3 8 C2.01 8 1.02 8 0 8 C0 5.36 0 2.72 0 0 Z " fill="#3EB3C3" transform="translate(6,14)"/>
<path d="M0 0 C1.32 0.66 2.64 1.32 4 2 C4 2.99 4 3.98 4 5 C2.35 4.67 0.7 4.34 -1 4 C-0.67 2.68 -0.34 1.36 0 0 Z " fill="#6886A8" transform="translate(23,14)"/>
</svg>
